
        <svg xmlns="http://www.w3.org/2000/svg" xmlns:xlink="http://www.w3.org/1999/xlink" version="1.1" width="3168.5393258426966" 
        height="1280.8988764044943" viewBox="0 0 3168.5393258426966 1280.8988764044943">
			
			<g transform="scale(8.426966292134832) translate(10, 10)">
				<defs id="SvgjsDefs1989"></defs><g id="SvgjsG1990" featureKey="symbolFeature-0" transform="matrix(1.3110110444518683,0,0,1.3110110444518683,-15.55121236914595,0.6923334480254617)" fill="#0092ca"><g xmlns="http://www.w3.org/2000/svg"><polygon fill="none" points="23.52,53.793 14.409,69.574 23.52,85.355 41.743,85.355 50.855,69.574 41.743,53.793  "></polygon><polygon fill="none" points="41.743,46.207 50.855,30.426 41.743,14.645 23.52,14.645 14.409,30.426 23.52,46.207  "></polygon><polygon fill="none" points="76.48,34.704 58.257,34.704 49.145,50.484 58.257,66.266 76.48,66.266 85.592,50.484  "></polygon><path d="M77.753,32.498h-20.77L46.599,50.484l10.385,17.987h20.77l10.385-17.987L77.753,32.498z M76.48,66.266H58.257   l-9.112-15.781l9.112-15.781H76.48l9.111,15.781L76.48,66.266z"></path><path d="M22.247,51.588L11.862,69.574l10.385,17.986h20.769l10.385-17.986L43.016,51.588H22.247z M41.743,85.355H23.52   l-9.111-15.781l9.111-15.781h18.223l9.112,15.781L41.743,85.355z"></path><path d="M43.016,48.413l10.385-17.986L43.016,12.439H22.247L11.862,30.426l10.385,17.986H43.016z M23.52,14.645h18.223   l9.112,15.781l-9.112,15.781H23.52l-9.111-15.781L23.52,14.645z"></path></g></g><g id="SvgjsG1991" featureKey="textGroupContainer" transform="matrix(1,0,0,1,355,0)" fill="#eeeeee"><rect xmlns="http://www.w3.org/2000/svg" y="0" height="1" width="1" opacity="0"></rect><rect xmlns="http://www.w3.org/2000/svg" y="0" x="-235" width="3" height="132"></rect></g><g id="SvgjsG1992" featureKey="vMvB0T-0" transform="matrix(3.2310176909508606,0,0,3.2310176909508606,133.08884854937358,13.484653269910346)" fill="#eeeeee"><path d="M11.32 10.56 q0 0.66 -0.2 1.25 t-0.53 1.06 t-0.78 0.82 t-0.93 0.53 q1.04 0.38 1.54 1.84 l0.6 1.7 q0.34 1 1 1.48 q-0.3 0.4 -0.9 0.67 t-1.32 0.27 t-1.12 -0.41 t-0.74 -1.43 l-0.72 -2.1 q-0.22 -0.6 -0.59 -0.92 t-1.11 -0.32 l-0.82 0 l0 5 q-0.64 0.12 -1.6 0.12 t-1.58 -0.12 l0 -13.56 l0.14 -0.14 q1.74 -0.04 2.93 -0.06 t1.87 -0.02 q1.1 0 2 0.27 t1.53 0.81 t0.98 1.36 t0.35 1.9 z M4.7 8.62 l0 3.92 q0.9 0 1.54 -0.03 t1.03 -0.24 t0.59 -0.59 t0.2 -1.1 q0 -1.94 -1.88 -1.94 l-0.83 0 t-0.65 -0.02 z M13.860000000000001 20 l0 -13.66 q0.62 -0.12 1.6 -0.12 t1.62 0.12 l0 13.66 q-0.64 0.12 -1.62 0.12 t-1.6 -0.12 z M25.34 8.98 l0.02 1.48 l0 9.54 q-0.68 0.12 -1.62 0.12 t-1.58 -0.12 l0 -11.02 l-1.28 0.02 l-2.06 0 q-0.12 -0.58 -0.12 -1.33 t0.12 -1.33 l9.9 0 q0.16 0.52 0.16 1.26 t-0.4 1.07 t-1.28 0.33 l-0.58 0 l-1.26 -0.02 l-0.02 0 z M32.96000000000001 16.28 q0.54 1.56 2.18 1.56 q0.82 0 1.33 -0.41 t0.8 -1.04 t0.39 -1.41 t0.1 -1.54 q0 -0.7 -0.05 -1.56 t-0.29 -1.61 t-0.76 -1.26 t-1.52 -0.51 q-0.96 0 -1.47 0.49 t-0.76 1.21 t-0.31 1.53 t-0.06 1.43 q0 0.92 0.09 1.64 t0.33 1.48 z M31.340000000000003 19.04 q-2.14 -1.78 -2.14 -5.86 q0 -1.76 0.41 -3.09 t1.18 -2.23 t1.87 -1.36 t2.48 -0.46 t2.49 0.46 t1.88 1.37 t1.18 2.24 t0.41 3.07 t-0.41 3.07 t-1.18 2.23 t-1.88 1.36 t-2.49 0.46 q-2.28 0 -3.8 -1.26 z M46.52000000000001 9.06 l0.02 1.56 l0 1.26 l4.28 0 q0.16 0.6 0.16 1.31 t-0.16 1.31 l-4.28 0 l0 5.5 q-0.64 0.12 -1.6 0.12 t-1.6 -0.12 l0 -13.54 l0.14 -0.12 l8.56 0 q0.12 0.5 0.12 1.25 t-0.41 1.11 t-1.29 0.36 l-3.94 0 z M59.08000000000001 9.72 l1.34 -3.38 q0.52 -0.12 1.34 -0.12 q0.88 0 1.52 0.24 l0.14 0.16 l-3.88 9.18 l0 4.2 q-0.62 0.12 -1.6 0.12 t-1.6 -0.12 l0 -4.28 l-3.86 -9 q0.92 -0.54 1.76 -0.54 t1.21 0.29 t0.65 0.99 l0.96 2.38 q0.52 1.28 0.9 2.86 l0.12 0 q0.32 -1.26 1 -2.98 z"></path></g><g id="SvgjsG1993" featureKey="sloganFeature-0" transform="matrix(0.6895125023195795,0,0,0.6895125023195795,137.8069366834702,85.37316506633766)" fill="#eeeeee"><path d="M9.54 15.82 l-5.76 0 l-1.5 4.18 l-2 0 l5.4 -14.36 l2.2 0 l5.2 14.36 l-2.12 0 z M4.38 14.1 l4.46 0 l-2.12 -6.32 l-0.04 0 z M31.892000000000003 20 l-1.88 0 l0 -8.48 c0 -0.42 0.04 -2.24 0.04 -3.58 l-0.04 0 l-4.04 12.06 l-1.92 0 l-4.04 -12.04 l-0.04 0 c0 1.32 0.04 3.14 0.04 3.56 l0 8.48 l-1.88 0 l0 -14.36 l2.78 0 l4.1 12.14 l0.04 0 l4.08 -12.14 l2.76 0 l0 14.36 z M46.204 15.82 l-5.76 0 l-1.5 4.18 l-2 0 l5.4 -14.36 l2.2 0 l5.2 14.36 l-2.12 0 z M41.044000000000004 14.1 l4.46 0 l-2.12 -6.32 l-0.04 0 z M65.096 18.28 l0 1.72 l-11.3 0 l0 -1.62 l8.8 -11.02 l-8.14 0 l0 -1.72 l10.64 0 l0 1.68 l-8.84 10.96 l8.84 0 z M72.64800000000001 5.640000000000001 l0 14.36 l-1.94 0 l0 -14.36 l1.94 0 z M88.82 17.240000000000002 l0 -11.6 l1.88 0 l0 14.36 l-2.18 0 l-7.3 -11.6 l-0.04 0 l0 11.6 l-1.88 0 l0 -14.36 l2.3 0 l7.18 11.6 l0.04 0 z M103.332 13.98 l0 -1.66 l6.3 0 l0 7.68 l-1.26 0 l-0.46 -1.86 c-0.98 1.36 -2.78 2.24 -4.74 2.24 c-2.46 0 -3.66 -0.9 -4.4 -1.62 c-2.2 -2.08 -2.26 -4.54 -2.26 -6.06 c0 -3.5 2.12 -7.44 6.8 -7.44 c2.68 0 5.66 1.52 6.08 4.74 l-1.88 0 c-0.62 -2.5 -2.72 -3.02 -4.3 -3.02 c-2.58 0 -4.7 2.06 -4.7 5.82 c0 2.92 0.96 5.92 4.78 5.92 c0.72 0 1.88 -0.08 2.94 -0.92 c1.26 -1 1.58 -2.28 1.58 -3.82 l-4.48 0 z M132.75599999999997 8.1 l-3.32 11.9 l-2.04 0 l-3.74 -14.36 l2.1 0 l2.68 11.68 l0.04 0 l3.22 -11.68 l2.12 0 l3.22 11.68 l0.04 0 l2.68 -11.68 l2.14 0 l-3.78 14.36 l-2.04 0 l-3.28 -11.9 l-0.04 0 z M157.86799999999997 18.28 l0 1.72 l-10.6 0 l0 -14.36 l10.46 0 l0 1.72 l-8.52 0 l0 4.4 l7.86 0 l0 1.72 l-7.86 0 l0 4.8 l8.66 0 z M165.63999999999996 7.300000000000001 l0 4.42 l3.5 0 c1.86 0 3 -0.56 3 -2.32 c0 -1.34 -0.82 -2.1 -2.98 -2.1 l-3.52 0 z M163.69999999999996 20 l0 -14.36 l6.32 0 c2.68 0 4.06 1.66 4.06 3.62 c0 0.94 -0.34 2.26 -1.92 3 c0.94 0.38 2.6 1.04 2.6 3.5 c0 2.3 -1.7 4.24 -4.88 4.24 l-6.18 0 z M165.63999999999996 13.3 l0 5.04 l4.14 0 c2.02 0 3.04 -1.02 3.04 -2.62 c0 -2.02 -1.78 -2.42 -3.36 -2.42 l-3.82 0 z M190.89199999999997 9.84 l-1.82 0 c-0.1 -2.22 -1.94 -2.92 -3.56 -2.92 c-1.22 0 -3.28 0.34 -3.28 2.52 c0 1.22 0.86 1.62 1.7 1.82 l4.1 0.94 c1.86 0.44 3.26 1.56 3.26 3.84 c0 3.4 -3.16 4.34 -5.62 4.34 c-2.66 0 -3.7 -0.8 -4.34 -1.38 c-1.22 -1.1 -1.46 -2.3 -1.46 -3.64 l1.82 0 c0 2.6 2.12 3.36 3.96 3.36 c1.4 0 3.76 -0.36 3.76 -2.42 c0 -1.5 -0.7 -1.98 -3.06 -2.54 l-2.94 -0.68 c-0.94 -0.22 -3.06 -0.88 -3.06 -3.38 c0 -2.24 1.46 -4.44 4.94 -4.44 c5.02 0 5.52 3 5.6 4.58 z M199.32399999999996 5.640000000000001 l0 14.36 l-1.94 0 l0 -14.36 l1.94 0 z M204.73599999999996 7.359999999999999 l0 -1.72 l11.66 0 l0 1.72 l-4.86 0 l0 12.64 l-1.94 0 l0 -12.64 l-4.86 0 z M232.32799999999995 18.28 l0 1.72 l-10.6 0 l0 -14.36 l10.46 0 l0 1.72 l-8.52 0 l0 4.4 l7.86 0 l0 1.72 l-7.86 0 l0 4.8 l8.66 0 z"></path></g>
			</g>
		</svg>
	